<svg viewBox="0 0 18 18" fill="none" xmlns="http://www.w3.org/2000/svg">
<g>
<path d="M1.5 15.75L8.7 8.55002" stroke="currentColor" stroke-width="1.5" stroke-linecap="round" stroke-linejoin="round"/>
<path d="M5.625 11.625L7.35 13.35C7.48742 13.4902 7.56439 13.6787 7.56439 13.875C7.56439 14.0713 7.48742 14.2598 7.35 14.4L5.775 15.975C5.6348 16.1124 5.44631 16.1894 5.25 16.1894C5.05369 16.1894 4.8652 16.1124 4.725 15.975L3 14.25" stroke="currentColor" stroke-width="1.5" stroke-linecap="round" stroke-linejoin="round"/>
<path d="M11.625 9.75C13.9032 9.75 15.75 7.90317 15.75 5.625C15.75 3.34683 13.9032 1.5 11.625 1.5C9.34683 1.5 7.5 3.34683 7.5 5.625C7.5 7.90317 9.34683 9.75 11.625 9.75Z" stroke="currentColor" stroke-width="1.5" stroke-linecap="round" stroke-linejoin="round"/>
</g>
</svg>
